<?xml version="1.0" standalone="no"?>
<!DOCTYPE svg PUBLIC "-//W3C//DTD SVG 1.1//EN" "http://www.w3.org/Graphics/SVG/1.1/DTD/svg11.dtd">
<!--Generator: Xara Designer (www.xara.com), SVG filter version: 6.0.0.4-->
<svg stroke-width="0.501" stroke-linejoin="bevel" fill-rule="evenodd" xmlns:xlink="http://www.w3.org/1999/xlink" xmlns="http://www.w3.org/2000/svg" version="1.1" overflow="visible" width="189.375pt" height="189.375pt" viewBox="0 0 189.375 189.375">
 <defs>
	</defs>
 <g id="Document" fill="none" stroke="black" font-family="Times New Roman" font-size="16" transform="scale(1 -1)">
  <g id="Spread" transform="translate(0 -189.375)">
   <g id="Layer 1">
    <g id="Group" stroke="none">
     <path d="M 27.718,161.657 C 64.685,198.625 124.691,198.625 161.658,161.657 C 198.626,124.69 198.626,64.684 161.658,27.717 C 124.691,-9.251 64.685,-9.251 27.718,27.717 C -9.25,64.684 -9.25,124.69 27.718,161.657 Z" fill="#f4f4f4" stroke-width="1.868" stroke-linejoin="miter" marker-start="none" marker-end="none" stroke-miterlimit="79.8403193612775"/>
     <g id="Group_1" fill="#ffffff" stroke-width="0.134" stroke-miterlimit="79.8403193612775">
      <path d="M 97.347,113.625 C 94.399,113.355 82.593,105.976 79.911,102.087 C 74.681,94.979 74.28,88.677 78.571,79.691 C 81.925,72.715 89.839,63.461 95.067,58.77 C 97.748,56.492 104.725,49.648 107.408,48.177 C 106.873,50.857 105.662,53.674 104.857,56.355 C 100.163,72.985 98.956,96.189 97.347,113.625 Z M 129.265,131.995 C 125.913,129.045 121.756,126.098 116.797,123.413 C 114.651,122.206 112.101,120.997 109.552,119.791 C 102.981,116.571 102.981,116.571 102.981,116.571 C 102.847,116.571 102.847,116.44 102.712,116.44 C 102.577,116.44 102.447,116.304 102.447,116.17 C 102.313,116.17 102.313,116.035 102.177,116.035 C 104.187,94.579 105.127,62.926 114.916,44.416 C 117.196,39.99 120.283,35.699 123.098,31.542 C 112.501,37.58 101.506,44.821 93.191,53.674 C 85.813,61.585 81.925,64.001 75.619,74.728 C 66.503,90.153 70.259,103.699 84.474,112.685 C 96.545,119.522 96.545,119.522 96.545,119.522 C 95.335,128.912 84.873,134.276 76.426,133.607 C 70.659,133.07 65.027,128.508 59.126,126.363 C 43.966,120.73 37.666,122.072 26.802,119.657 C 26.802,121.266 49.068,124.083 65.696,134.006 C 77.635,141.116 96.41,138.567 100.701,123.817 C 101.506,121.802 101.506,121.802 101.506,121.802 C 104.857,122.876 114.111,127.705 117.196,129.581 C 121.892,132.4 127.794,136.152 129.4,141.252 C 132.084,149.03 132.084,149.03 132.084,149.03 C 137.18,130.788 133.695,105.442 118.403,92.569 C 115.857,90.423 112.635,87.739 109.018,85.863 C 110.894,97.125 116.257,95.115 122.293,105.577 C 126.318,112.685 129.132,122.473 129.265,131.995 Z" fill="#0fb550" marker-start="none" marker-end="none"/>
      <path d="M 80.582,121.533 C 79.375,118.046 73.073,119.522 74.413,123.948 C 75.619,127.705 82.058,126.098 80.582,121.533 Z" fill="#333333" marker-start="none" marker-end="none"/>
     </g>
    </g>
   </g>
  </g>
 </g>
</svg>
